<?xml version="1.0" encoding="UTF-8" standalone="no"?><!DOCTYPE svg PUBLIC "-//W3C//DTD SVG 1.1//EN" "http://www.w3.org/Graphics/SVG/1.1/DTD/svg11.dtd"><svg width="100%" height="100%" viewBox="0 0 1401 1516" version="1.1" xmlns="http://www.w3.org/2000/svg" xmlns:xlink="http://www.w3.org/1999/xlink" xml:space="preserve" xmlns:serif="http://www.serif.com/" style="fill-rule:evenodd;clip-rule:evenodd;stroke-linejoin:round;stroke-miterlimit:2;"><path d="M23.216,41.667c-11.499,-0 -20.834,-9.335 -20.834,-20.834c0,-11.498 9.335,-20.833 20.834,-20.833l1356.62,0c11.506,0 20.834,9.327 20.834,20.833l-0,1474c-0,11.506 -9.328,20.834 -20.834,20.834l-1359,-0c-11.506,-0 -20.833,-9.328 -20.833,-20.834l0,-1348c-0,-11.506 9.327,-20.833 20.833,-20.833l1235,-0c11.506,-0 20.834,9.327 20.834,20.833l-0,1222c-0,11.506 -9.328,20.834 -20.834,20.834l-1118,-0c-11.506,-0 -20.833,-9.328 -20.833,-20.834l0,-1093c-0,-11.506 9.327,-20.833 20.833,-20.833l999,-0c11.506,0 20.834,9.327 20.834,20.833l-0,962c-0,11.506 -9.328,20.834 -20.834,20.834l-885,-0c-11.506,-0 -20.833,-9.328 -20.833,-20.834l0,-829c0,-11.506 9.327,-20.833 20.833,-20.833l767,-0c11.506,-0 20.834,9.327 20.834,20.833l-0,700c-0,11.506 -9.328,20.834 -20.834,20.834l-645,-0c-11.506,-0 -20.833,-9.328 -20.833,-20.834l0,-576c-0,-11.506 9.327,-20.833 20.833,-20.833l531,-0c11.506,-0 20.834,9.327 20.834,20.833l-0,447c-0,11.506 -9.328,20.834 -20.834,20.834l-413,-0c-11.506,-0 -20.833,-9.328 -20.833,-20.834l0,-312c0,-11.506 9.327,-20.833 20.833,-20.833l291,-0c11.506,-0 20.834,9.327 20.834,20.833l-0,182c-0,11.506 -9.328,20.834 -20.834,20.834l-140,-0c-11.498,-0 -20.833,-9.335 -20.833,-20.834c0,-11.498 9.335,-20.833 20.833,-20.833c0,0 71.703,-0 103.87,-0c8.448,-0 15.297,-6.849 15.297,-15.297c-0,-26.989 -0,-82.751 -0,-109.739c-0,-8.449 -6.849,-15.297 -15.297,-15.297c-44.597,-0 -174.142,-0 -218.739,-0c-8.449,-0 -15.297,6.848 -15.297,15.297c-0,47.517 -0,192.222 -0,239.739c-0,8.448 6.848,15.297 15.297,15.297c60.213,-0 280.526,-0 340.739,-0c8.448,-0 15.297,-6.849 15.297,-15.297c0,-64.091 0,-310.648 0,-374.739c0,-8.449 -6.849,-15.297 -15.297,-15.297c-73.033,-0 -385.706,-0 -458.739,-0c-8.449,-0 -15.297,6.848 -15.297,15.297c-0,77.51 -0,426.229 -0,503.739c-0,4.057 1.611,7.948 4.48,10.817c2.869,2.868 6.76,4.48 10.817,4.48c84.025,0 488.714,0 572.739,0c4.057,0 7.948,-1.612 10.817,-4.48c2.868,-2.869 4.48,-6.76 4.48,-10.817c-0,-88.958 -0,-538.782 -0,-627.739c-0,-8.449 -6.849,-15.297 -15.297,-15.297c-94.697,-0 -600.042,-0 -694.739,-0c-4.057,-0 -7.948,1.611 -10.817,4.48c-2.869,2.869 -4.48,6.76 -4.48,10.817c-0,99.777 -0,656.962 -0,756.739c-0,4.057 1.611,7.948 4.48,10.817c2.869,2.868 6.76,4.48 10.817,4.48c104.197,-0 708.542,-0 812.739,-0c4.057,-0 7.948,-1.612 10.817,-4.48c2.868,-2.869 4.48,-6.76 4.48,-10.817c0,-110.043 0,-779.697 0,-889.739c0,-4.057 -1.612,-7.948 -4.48,-10.817c-2.869,-2.869 -6.76,-4.48 -10.817,-4.48c-112.765,-0 -813.975,-0 -926.739,-0c-8.449,-0 -15.297,6.848 -15.297,15.297c-0,119.453 -0,901.286 -0,1020.74c-0,8.448 6.848,15.297 15.297,15.297c121.181,-0 924.558,-0 1045.74,-0c8.448,-0 15.297,-6.849 15.297,-15.297c-0,-128.164 -0,-1021.58 -0,-1149.74c-0,-4.057 -1.612,-7.948 -4.48,-10.817c-2.869,-2.869 -6.76,-4.48 -10.817,-4.48c-129.015,-0 -1033.72,-0 -1162.74,-0c-8.449,-0 -15.297,6.848 -15.297,15.297c-0,136.225 -0,1139.51 -0,1275.74c-0,8.448 6.848,15.297 15.297,15.297c136.91,-0 1149.83,-0 1286.74,-0c4.057,-0 7.948,-1.612 10.817,-4.48c2.868,-2.869 4.48,-6.76 4.48,-10.817c0,-153.889 0,-1417.04 0,-1417.04"/></svg>